<?xml version="1.0" encoding="UTF-8" standalone="no"?>
<!DOCTYPE svg PUBLIC "-//W3C//DTD SVG 1.1//EN" "http://www.w3.org/Graphics/SVG/1.1/DTD/svg11.dtd">
<svg width="100%" height="100%" viewBox="0 0 131 183" version="1.1" xmlns="http://www.w3.org/2000/svg" xmlns:xlink="http://www.w3.org/1999/xlink" xml:space="preserve" xmlns:serif="http://www.serif.com/" style="fill-rule:evenodd;clip-rule:evenodd;stroke-linejoin:round;stroke-miterlimit:2;">
    <g transform="matrix(1,0,0,1,-65.05,-393.462)">
        <g id="Objects">
        </g>
        <g id="Silver-" serif:id="Silver~" transform="matrix(0.364033,0,0,0.76497,-259.407,306.778)">
            <rect x="891.283" y="113.317" width="357.385" height="239.225" style="fill:none;"/>
            <g transform="matrix(2.747,0,0,1.30724,1170.87,343.472)">
                <path d="M0,-86.164L0,0L-32.466,-32.466L-64.932,0L-64.932,-86.164L0,-86.164Z" style="fill:rgb(255,102,102);fill-rule:nonzero;"/>
            </g>
            <g transform="matrix(0,-1.30724,-2.747,0,1081.69,113.317)">
                <path d="M-58.119,-58.119C-26.021,-58.119 0,-32.098 0,0C0,32.098 -26.021,58.119 -58.119,58.119C-90.217,58.119 -116.238,32.098 -116.238,0C-116.238,-32.098 -90.217,-58.119 -58.119,-58.119" style="fill:rgb(225,218,198);fill-rule:nonzero;"/>
            </g>
            <g transform="matrix(2.747,0,0,1.30724,1081.69,249.076)">
                <path d="M0,-91.465C-25.217,-91.465 -45.732,-70.95 -45.732,-45.733C-45.732,-20.515 -25.217,0 0,0C25.217,0 45.732,-20.515 45.732,-45.733C45.732,-70.95 25.217,-91.465 0,-91.465M0,3.843C-27.336,3.843 -49.575,-18.397 -49.575,-45.733C-49.575,-73.068 -27.336,-95.308 0,-95.308C27.336,-95.308 49.576,-73.068 49.576,-45.733C49.576,-18.397 27.336,3.843 0,3.843" style="fill:rgb(204,196,180);fill-rule:nonzero;"/>
            </g>
            <g transform="matrix(2.747,0,0,1.30724,1081.69,223.25)">
                <path d="M0,-58.084L7.209,-35.898L30.537,-35.898L11.664,-22.186L18.873,0L0,-13.712L-18.873,0L-11.664,-22.186L-30.537,-35.898L-7.209,-35.898L0,-58.084Z" style="fill:rgb(204,196,180);fill-rule:nonzero;"/>
            </g>
            <g transform="matrix(0,-1.30724,-2.747,0,936.358,251.636)">
                <path d="M-5.214,-5.214C-8.094,-5.214 -10.428,-2.88 -10.428,0C-10.428,2.88 -8.094,5.214 -5.214,5.214C-2.334,5.214 0,2.88 0,0C0,-2.88 -2.334,-5.214 -5.214,-5.214" style="fill:rgb(225,218,198);fill-rule:nonzero;"/>
            </g>
            <g transform="matrix(0,-1.30724,-2.747,0,901.146,218.691)">
                <path d="M-3.591,-3.591C-5.574,-3.591 -7.181,-1.984 -7.181,-0.001C-7.181,1.983 -5.574,3.591 -3.591,3.591C-1.608,3.591 -0.001,1.983 -0.001,-0.001C-0.001,-1.984 -1.608,-3.591 -3.591,-3.591" style="fill:rgb(204,196,180);fill-rule:nonzero;"/>
            </g>
            <g transform="matrix(2.747,0,0,1.30724,1067.61,345.434)">
                <path d="M0,-3L-5.414,-3L-5.414,-8.414L-8.414,-8.414L-8.414,-3L-13.827,-3L-13.827,0L-8.414,0L-8.414,5.414L-5.414,5.414L-5.414,0L0,0L0,-3Z" style="fill:rgb(225,218,198);fill-rule:nonzero;"/>
            </g>
            <g transform="matrix(0,-1.30724,-2.747,0,1078.61,325.211)">
                <path d="M-3.149,-3.149C-4.887,-3.149 -6.297,-1.739 -6.297,0C-6.297,1.738 -4.887,3.149 -3.149,3.149C-1.41,3.149 0,1.738 0,0C0,-1.739 -1.41,-3.149 -3.149,-3.149" style="fill:rgb(204,196,180);fill-rule:nonzero;"/>
            </g>
            <g transform="matrix(0,-1.30724,-2.747,0,929.745,122.468)">
                <path d="M-4.271,-4.271C-6.63,-4.271 -8.544,-2.359 -8.544,0.001C-8.544,2.36 -6.63,4.271 -4.271,4.271C-1.913,4.271 0.001,2.36 0.001,0.001C0.001,-2.359 -1.913,-4.271 -4.271,-4.271" style="fill:rgb(225,218,198);fill-rule:nonzero;"/>
            </g>
            <g transform="matrix(0,-1.30724,-2.747,0,1212.4,113.317)">
                <path d="M-3.5,-3.5C-5.433,-3.5 -7,-1.933 -7,0C-7,1.933 -5.433,3.5 -3.5,3.5C-1.567,3.5 0,1.933 0,0C0,-1.933 -1.567,-3.5 -3.5,-3.5" style="fill:rgb(225,218,198);fill-rule:nonzero;"/>
            </g>
            <g transform="matrix(2.747,0,0,1.30724,1248.63,139.058)">
                <path d="M0,-1.996L-3.6,-1.996L-3.6,-5.596L-5.596,-5.596L-5.596,-1.996L-9.196,-1.996L-9.196,-0.001L-5.596,-0.001L-5.596,3.6L-3.6,3.6L-3.6,-0.001L0,-0.001L0,-1.996Z" style="fill:rgb(204,196,180);fill-rule:nonzero;"/>
            </g>
            <g transform="matrix(0,-1.30724,-2.747,0,1202.32,307.472)">
                <path d="M-2.833,-2.833C-4.398,-2.833 -5.666,-1.564 -5.666,0C-5.666,1.565 -4.398,2.833 -2.833,2.833C-1.268,2.833 0,1.565 0,0C0,-1.564 -1.268,-2.833 -2.833,-2.833" style="fill:rgb(204,196,180);fill-rule:nonzero;"/>
            </g>
        </g>
    </g>
</svg>
